<svg xmlns="http://www.w3.org/2000/svg" width="1800" height="1200"><rect width="1800" height="1200" fill="#f6f8fa"/><text x="80" y="100" font-family="Arial" font-size="28" font-weight="700" fill="#1f8a5b">SCENARIO &amp; RISK</text><text x="80" y="180" font-family="Arial" font-size="62" font-weight="800" fill="#0d2438">Base stays accountable. Scenarios stay separate.</text><rect x="80" y="290" rx="26" width="760" height="760" fill="#fff" stroke="#d9e1e7"/><text x="125" y="355" font-family="Arial" font-size="30" font-weight="700" fill="#0d2438">SCENARIO SUMMARY</text><g font-family="Arial" font-size="22"><text x="125" y="440" font-weight="700" fill="#66727f">Metric</text><text x="430" y="440" font-weight="700" fill="#1f8a5b">Base</text><text x="565" y="440" font-weight="700" fill="#0d2438">Downside</text><text x="720" y="440" font-weight="700" fill="#0d2438">Stress</text><text x="125" y="535" fill="#1d2733">Minimum Closing Cash</text><text x="430" y="535" fill="#1d2733">$41k</text><text x="565" y="535" fill="#66727f">Below Base</text><text x="720" y="535" fill="#c63a38">-$9k</text><text x="125" y="635" fill="#1d2733">First Reserve Breach</text><text x="430" y="635" fill="#1d2733">Week 6</text><text x="565" y="635" fill="#66727f">Earlier</text><text x="720" y="635" fill="#66727f">Earlier</text><text x="125" y="735" fill="#1d2733">Week 13 Closing Cash</text><text x="430" y="735" fill="#1d2733">$116k</text><text x="565" y="735" fill="#66727f">Below Base</text><text x="720" y="735" fill="#1d2733">$66k</text></g><rect x="920" y="290" rx="26" width="800" height="760" fill="#fff" stroke="#d9e1e7"/><text x="970" y="355" font-family="Arial" font-size="30" font-weight="700" fill="#0d2438">FROZEN BASE + NAMED ADJUSTMENTS</text><g font-family="Arial"><circle cx="1010" cy="480" r="38" fill="#0d2438"/><text x="997" y="492" font-size="26" font-weight="700" fill="#fff">1</text><text x="1075" y="470" font-size="28" font-weight="700" fill="#1f8a5b">Base forecast</text><text x="1075" y="510" font-size="22" fill="#66727f">Accountable operating estimate</text><circle cx="1010" cy="650" r="38" fill="#0d2438"/><text x="997" y="662" font-size="26" font-weight="700" fill="#fff">2</text><text x="1075" y="640" font-size="28" font-weight="700" fill="#1f8a5b">Scenario adjustments</text><text x="1075" y="680" font-size="22" fill="#66727f">Named timing and amount changes</text><circle cx="1010" cy="820" r="38" fill="#0d2438"/><text x="997" y="832" font-size="26" font-weight="700" fill="#fff">3</text><text x="1075" y="810" font-size="28" font-weight="700" fill="#1f8a5b">Scenario result</text><text x="1075" y="850" font-size="22" fill="#66727f">Cash, breach, gap and mitigation</text></g><rect x="970" y="930" rx="16" width="660" height="70" fill="#fbe6e5"/><text x="1000" y="972" font-family="Arial" font-size="22" font-weight="700" fill="#c63a38">Scenarios never overwrite the frozen Base forecast.</text></svg>